<?xml version="1.0" encoding="utf-8"?>
<!-- Generator: Adobe Illustrator 15.0.0, SVG Export Plug-In . SVG Version: 6.00 Build 0)  -->
<!DOCTYPE svg PUBLIC "-//W3C//DTD SVG 1.1//EN" "http://www.w3.org/Graphics/SVG/1.1/DTD/svg11.dtd">
<svg version="1.1" id="Calque_1" xmlns="http://www.w3.org/2000/svg" xmlns:xlink="http://www.w3.org/1999/xlink" x="0px" y="0px"
	 width="694px" height="490.711px" viewBox="0 0 694 490.711" enable-background="new 0 0 694 490.711" xml:space="preserve">
<g>
	<g>
		<line fill="#5F6062" x1="396.958" y1="187.843" x2="396.958" y2="315.354"/>
		<rect x="395.708" y="187.843" fill="#5F6062" width="2.5" height="127.512"/>
	</g>
</g>
<g>
	<rect x="44.687" y="187.902" fill="#EE3524" width="33.356" height="127.487"/>
	<polygon fill="#EE3524" points="124.499,187.902 146.024,266.466 146.384,266.466 146.384,187.902 177.588,187.902 177.588,315.39 
		141.003,315.39 118.765,236.654 118.406,236.654 118.406,315.39 87.196,315.39 87.196,187.902 	"/>
	<path fill="#EE3524" d="M237.866,221.646c0-3.806-0.791-7.053-2.342-9.725c-1.558-2.688-3.95-4.021-7.169-4.021
		c-3.593,0-6.225,1.159-7.891,3.482c-1.683,2.318-2.514,4.903-2.514,7.771c0,4.16,1.347,7.469,4.034,9.905
		c2.693,2.441,6.066,4.55,10.127,6.335c4.071,1.785,8.434,3.601,13.103,5.447c4.66,1.852,9.026,4.257,13.093,7.237
		c4.063,2.975,7.442,6.873,10.13,11.69c2.695,4.821,4.039,11.1,4.039,18.84c0,13.571-3.886,23.426-11.656,29.55
		c-7.779,6.145-19.019,9.197-33.726,9.197c-6.935,0-13.063-0.569-18.391-1.693c-5.312-1.133-9.805-3.098-13.446-5.898
		c-3.649-2.79-6.433-6.452-8.335-10.987c-1.913-4.519-2.867-10.115-2.867-16.778v-4.472h32.279v3.046
		c0,5.483,1.016,9.315,3.047,11.516c2.039,2.211,4.663,3.313,7.894,3.313c3.473,0,6.117-1.2,7.987-3.575
		c1.847-2.38,2.78-5.288,2.78-8.756c0-4.154-1.298-7.468-3.865-9.899c-2.573-2.441-5.798-4.529-9.679-6.258
		c-3.891-1.718-8.103-3.482-12.642-5.268c-4.556-1.785-8.771-4.104-12.657-6.96c-3.886-2.863-7.112-6.607-9.682-11.26
		c-2.579-4.627-3.857-10.71-3.857-18.204c0-12.972,3.468-22.856,10.408-29.645c6.933-6.781,17.455-10.182,31.565-10.182
		c14.583,0,25.134,3.129,31.657,9.381c6.516,6.248,9.778,16.222,9.778,29.912h-31.204V221.646z"/>
	<path fill="#EE3524" d="M341.891,187.897l31.208,127.492h-35.505l-3.416-22.313h-26.546l-3.41,22.313h-34.975l30.676-127.492
		H341.891z M320.727,213.972l-9.147,54.095h18.656l-9.163-54.095H320.727z"/>
</g>
<polygon fill="#5F6062" points="350.509,187.841 373.108,187.841 373.108,283.577 "/>
<g>
	<g>
		<path fill="#5F6062" d="M420.957,187.85h2.771v22.486h-2.771V187.85z"/>
		<path fill="#5F6062" d="M427.404,187.85h3.591l7.433,18.77h0.063v-18.77h2.771v22.486h-3.811l-7.212-18.203h-0.063v18.203h-2.771
			V187.85z"/>
		<path fill="#5F6062" d="M454.541,193.676c0-2.362-0.852-4-3.496-4c-2.331,0-3.717,1.26-3.717,3.653
			c0,6.33,10.613,2.551,10.613,10.771c0,5.197-3.811,6.678-6.992,6.678c-5.259,0-6.803-2.709-6.803-7.496h2.771
			c0,2.52,0.158,5.229,4.221,5.229c2.205,0,3.906-1.575,3.906-3.969c0-6.361-10.614-2.677-10.614-10.929
			c0-2.078,0.882-6.204,6.583-6.204c4.283,0,6.234,2.142,6.299,6.268H454.541z"/>
		<path fill="#5F6062" d="M467.699,210.336h-2.771v-20.03h-5.639v-2.456h14.078v2.456h-5.668V210.336z"/>
		<path fill="#5F6062" d="M475.729,187.85h2.771v22.486h-2.771V187.85z"/>
		<path fill="#5F6062" d="M489.238,210.336h-2.771v-20.03h-5.638v-2.456h14.077v2.456h-5.668V210.336z"/>
		<path fill="#5F6062" d="M497.148,187.85h2.771v15.81c0,3.307,1.071,4.851,3.811,4.851c2.961,0,3.844-1.701,3.844-4.851v-15.81
			h2.771v15.81c0,4.314-2.205,7.118-6.615,7.118c-4.503,0-6.582-2.488-6.582-7.118V187.85z"/>
		<path fill="#5F6062" d="M520.996,210.336h-2.771v-20.03h-5.638v-2.456h14.077v2.456h-5.668V210.336z"/>
		<path fill="#5F6062" d="M536.306,187.85h3.591l7.432,18.77h0.063v-18.77h2.771v22.486h-3.812l-7.211-18.203h-0.063v18.203h-2.771
			V187.85z"/>
		<path fill="#5F6062" d="M558.787,187.85h3.716l6.047,22.486h-2.897l-1.605-6.173h-7.182l-1.669,6.173h-2.897L558.787,187.85z
			 M557.432,201.896h6.047l-2.865-10.865h-0.063L557.432,201.896z"/>
		<path fill="#5F6062" d="M575.57,210.336h-2.771v-20.03h-5.639v-2.456h14.078v2.456h-5.668V210.336z"/>
		<path fill="#5F6062" d="M583.6,187.85h2.771v22.486H583.6V187.85z"/>
		<path fill="#5F6062" d="M604.135,199.093c0,5.669-1.039,11.685-7.243,11.685s-7.243-6.016-7.243-11.685s1.039-11.685,7.243-11.685
			S604.135,193.424,604.135,199.093z M592.545,199.093c0,5.196,0.504,9.417,4.347,9.417s4.347-4.221,4.347-9.417
			s-0.504-9.417-4.347-9.417S592.545,193.896,592.545,199.093z"/>
		<path fill="#5F6062" d="M607.42,187.85h3.59l7.434,18.77h0.063v-18.77h2.771v22.486h-3.811l-7.213-18.203h-0.063v18.203h-2.771
			V187.85z"/>
		<path fill="#5F6062" d="M629.9,187.85h3.717l6.047,22.486h-2.897l-1.606-6.173h-7.18l-1.67,6.173h-2.897L629.9,187.85z
			 M628.547,201.896h6.047l-2.866-10.865h-0.063L628.547,201.896z"/>
		<path fill="#5F6062" d="M641.783,187.85h2.771v20.029h9.133v2.457h-11.904V187.85z"/>
		<path fill="#5F6062" d="M421.24,222.85h6.016c6.992,0,7.873,5.039,7.873,11.243c0,5.669-1.416,11.243-7.59,11.243h-6.299V222.85z
			 M424.012,243.068h2.898c4.787,0,5.322-4.913,5.322-8.944c0-4.347-0.283-9.007-5.322-9.007h-2.898V243.068z"/>
		<path fill="#5F6062" d="M438.37,222.85h11.622v2.456h-8.851v7.055h8.347v2.456h-8.347v8.063h9.228v2.457H438.37V222.85z"/>
		<path fill="#5F6062" d="M462.617,228.676c0-2.362-0.851-4-3.496-4c-2.33,0-3.717,1.26-3.717,3.653
			c0,6.33,10.613,2.551,10.613,10.771c0,5.197-3.811,6.678-6.99,6.678c-5.26,0-6.803-2.709-6.803-7.496h2.771
			c0,2.52,0.156,5.229,4.219,5.229c2.205,0,3.906-1.575,3.906-3.969c0-6.361-10.613-2.677-10.613-10.929
			c0-2.078,0.881-6.204,6.582-6.204c4.283,0,6.236,2.142,6.299,6.268H462.617z"/>
		<path fill="#5F6062" d="M485.926,228.676c0-2.362-0.85-4-3.495-4c-2.331,0-3.716,1.26-3.716,3.653
			c0,6.33,10.613,2.551,10.613,10.771c0,5.197-3.811,6.678-6.992,6.678c-5.26,0-6.803-2.709-6.803-7.496h2.771
			c0,2.52,0.158,5.229,4.221,5.229c2.205,0,3.904-1.575,3.904-3.969c0-6.361-10.613-2.677-10.613-10.929
			c0-2.078,0.883-6.204,6.582-6.204c4.283,0,6.236,2.142,6.299,6.268H485.926z"/>
		<path fill="#5F6062" d="M505.869,237.62c-0.252,4.251-1.922,8.157-6.835,8.157c-6.394,0-7.243-6.016-7.243-11.685
			s1.039-11.685,7.243-11.685c4.599,0,6.519,2.582,6.646,6.992h-2.898c-0.063-2.552-0.881-4.725-3.747-4.725
			c-3.843,0-4.347,4.221-4.347,9.417s0.504,9.417,4.347,9.417c3.37,0,3.843-3.15,3.937-5.89H505.869z"/>
		<path fill="#5F6062" d="M508.52,222.85h2.771v22.486h-2.771V222.85z"/>
		<path fill="#5F6062" d="M514.969,222.85h11.621v2.456h-8.85v7.055h8.346v2.456h-8.346v8.063h9.227v2.457h-11.998V222.85z"/>
		<path fill="#5F6062" d="M529.574,222.85h3.591l7.433,18.77h0.063v-18.77h2.771v22.486h-3.811l-7.212-18.203h-0.063v18.203h-2.771
			V222.85z"/>
		<path fill="#5F6062" d="M560.795,237.62c-0.252,4.251-1.922,8.157-6.834,8.157c-6.395,0-7.244-6.016-7.244-11.685
			s1.039-11.685,7.244-11.685c4.598,0,6.52,2.582,6.645,6.992h-2.896c-0.064-2.552-0.883-4.725-3.748-4.725
			c-3.843,0-4.347,4.221-4.347,9.417s0.504,9.417,4.347,9.417c3.369,0,3.842-3.15,3.936-5.89H560.795z"/>
		<path fill="#5F6062" d="M563.463,222.85h11.621v2.456h-8.85v7.055h8.346v2.456h-8.346v8.063h9.227v2.457h-11.998V222.85z"/>
		<path fill="#5F6062" d="M587.709,228.676c0-2.362-0.85-4-3.496-4c-2.33,0-3.716,1.26-3.716,3.653
			c0,6.33,10.614,2.551,10.614,10.771c0,5.197-3.812,6.678-6.992,6.678c-5.26,0-6.803-2.709-6.803-7.496h2.771
			c0,2.52,0.157,5.229,4.221,5.229c2.203,0,3.904-1.575,3.904-3.969c0-6.361-10.613-2.677-10.613-10.929
			c0-2.078,0.882-6.204,6.582-6.204c4.283,0,6.236,2.142,6.299,6.268H587.709z"/>
		<path fill="#5F6062" d="M425.366,257.85h3.716l6.047,22.486h-2.896l-1.607-6.173h-7.18l-1.67,6.173h-2.896L425.366,257.85z
			 M424.012,271.896h6.047l-2.865-10.865h-0.063L424.012,271.896z"/>
		<path fill="#5F6062" d="M437.249,257.85h5.731c1.953,0,6.961,0,6.961,6.456c0,4.188-2.678,6.519-6.488,6.519h-3.433v9.512h-2.771
			V257.85z M440.021,268.557h3.308c2.016,0,3.715-1.385,3.715-4.377c0-2.457-1.164-4.063-3.904-4.063h-3.118V268.557z"/>
		<path fill="#5F6062" d="M452.488,257.85h5.732c1.952,0,6.959,0,6.959,6.456c0,4.188-2.676,6.519-6.486,6.519h-3.434v9.512h-2.771
			V257.85z M455.26,268.557h3.307c2.016,0,3.717-1.385,3.717-4.377c0-2.457-1.166-4.063-3.906-4.063h-3.117V268.557z"/>
		<path fill="#5F6062" d="M467.728,257.85h2.771v20.029h9.134v2.457h-11.905V257.85z"/>
		<path fill="#5F6062" d="M481.993,257.85h2.771v22.486h-2.771V257.85z"/>
		<path fill="#5F6062" d="M499.158,279.643c-0.977,0.725-2.268,1.135-3.873,1.135c-6.205,0-7.244-6.016-7.244-11.685
			s1.039-11.685,7.244-11.685c6.203,0,7.243,6.016,7.243,11.685c0,3.243-0.347,6.613-1.827,8.881l2.268,2.079l-1.543,1.638
			L499.158,279.643z M495.158,276.021l1.543-1.701l2.08,1.89c0.691-1.7,0.85-4.251,0.85-7.117c0-5.196-0.504-9.417-4.346-9.417
			c-3.843,0-4.347,4.221-4.347,9.417s0.504,9.417,4.347,9.417c0.818,0,1.512-0.189,2.047-0.536L495.158,276.021z"/>
		<path fill="#5F6062" d="M505.609,257.85h2.771v15.81c0,3.307,1.07,4.851,3.811,4.851c2.961,0,3.842-1.701,3.842-4.851v-15.81
			h2.771v15.81c0,4.314-2.205,7.118-6.613,7.118c-4.504,0-6.582-2.488-6.582-7.118V257.85z"/>
		<path fill="#5F6062" d="M522.369,257.85h11.621v2.456h-8.85v7.055h8.346v2.456h-8.346v8.063h9.229v2.457h-12V257.85z
			 M528.857,252.148h3.086l-3.4,4.473h-1.891L528.857,252.148z"/>
		<path fill="#5F6062" d="M536.977,257.85h11.621v2.456h-8.85v7.055h8.346v2.456h-8.346v8.063h9.227v2.457h-11.998V257.85z"/>
		<path fill="#5F6062" d="M561.223,263.676c0-2.362-0.85-4-3.496-4c-2.33,0-3.716,1.26-3.716,3.653
			c0,6.33,10.614,2.551,10.614,10.771c0,5.197-3.812,6.678-6.992,6.678c-5.26,0-6.803-2.709-6.803-7.496h2.771
			c0,2.52,0.157,5.229,4.221,5.229c2.203,0,3.904-1.575,3.904-3.969c0-6.361-10.613-2.677-10.613-10.929
			c0-2.078,0.882-6.204,6.582-6.204c4.283,0,6.236,2.142,6.299,6.268H561.223z"/>
		<path fill="#5F6062" d="M420.768,292.85h8.882c4.503,0,6.047,2.771,6.047,5.857c0,3.275-1.323,4.882-3.779,5.48v0.063
			c3.37,0.473,3.56,2.582,3.622,5.605c0.094,4.441,0.252,4.882,1.008,5.197v0.283h-5.701c-0.408-0.756-0.566-2.016-0.566-4.566
			c0-3.905-0.535-4.725-2.205-4.725h-2.016v9.291h-5.291V292.85z M426.059,302.329h1.639c2.141,0,2.708-1.606,2.708-2.929
			c0-1.701-0.63-2.835-2.739-2.835h-1.607V302.329z"/>
		<path fill="#5F6062" d="M439.596,292.85h13.006v4.283h-7.715v4.503h7.243v4.283h-7.243v5.134h8.063v4.283h-13.354V292.85z"/>
		<path fill="#5F6062" d="M456.193,292.85h6.078l4.346,14.613h0.063V292.85h4.914v22.486h-5.984l-4.629-15.495h-0.063v15.495h-4.724
			V292.85z"/>
		<path fill="#5F6062" d="M475.584,292.85h6.078l4.346,14.613h0.063V292.85h4.914v22.486H485l-4.629-15.495h-0.063v15.495h-4.724
			V292.85z"/>
		<path fill="#5F6062" d="M494.975,292.85h13.008v4.283h-7.717v4.503h7.244v4.283h-7.244v5.134h8.063v4.283h-13.354V292.85z"/>
		<path fill="#5F6062" d="M516.158,308.471v0.787c0,1.7,0.472,2.992,2.299,2.992c1.857,0,2.393-1.387,2.393-2.678
			c0-4.85-9.668-2.142-9.668-10.551c0-3.59,1.921-6.613,7.369-6.613c5.291,0,7.182,2.677,7.182,6.142v0.535h-5.104
			c0-1.071-0.125-1.858-0.439-2.362c-0.316-0.535-0.82-0.787-1.607-0.787c-1.322,0-2.109,0.787-2.109,2.425
			c0,4.692,9.668,2.331,9.668,10.268c0,5.102-2.834,7.149-7.684,7.149c-3.843,0-7.402-1.166-7.402-5.858v-1.448H516.158z"/>
	</g>
</g>
</svg>
